<svg width="24" height="24" viewBox="0 0 24 24" fill="none" xmlns="http://www.w3.org/2000/svg">
<path d="M6.70711 8.29289C6.31658 7.90237 5.68342 7.90237 5.29289 8.29289C4.90237 8.68342 4.90237 9.31658 5.29289 9.70711L6.70711 8.29289ZM18.7071 9.70711C19.0976 9.31658 19.0976 8.68342 18.7071 8.29289C18.3166 7.90237 17.6834 7.90237 17.2929 8.29289L18.7071 9.70711ZM11.2929 14.2929L10.5858 15L11.2929 14.2929ZM12.7071 14.2929L13.4142 15L12.7071 14.2929ZM5.29289 9.70711L10.5858 15L12 13.5858L6.70711 8.29289L5.29289 9.70711ZM13.4142 15L18.7071 9.70711L17.2929 8.29289L12 13.5858L13.4142 15ZM10.5858 15C11.3668 15.781 12.6332 15.781 13.4142 15L12 13.5858L12 13.5858L10.5858 15Z" fill="black"/>
</svg>
