<svg width="24" height="24" viewBox="0 0 24 24" fill="none" xmlns="http://www.w3.org/2000/svg">
<path d="M20.2929 5.29289C20.6834 4.90237 21.3166 4.90237 21.7071 5.29289C22.0976 5.68342 22.0976 6.31658 21.7071 6.70711L20.2929 5.29289ZM2.29289 12.7071C1.90237 12.3166 1.90237 11.6834 2.29289 11.2929C2.68342 10.9024 3.31658 10.9024 3.70711 11.2929L2.29289 12.7071ZM21.7071 6.70711L10.4142 18L9 16.5858L20.2929 5.29289L21.7071 6.70711ZM7.58579 18L2.29289 12.7071L3.70711 11.2929L9 16.5858L7.58579 18ZM10.4142 18C9.63317 18.781 8.36683 18.781 7.58579 18L9 16.5858L10.4142 18Z" fill="black"/>
</svg>
