<svg width="32" height="32" viewBox="0 0 32 32" fill="none" xmlns="http://www.w3.org/2000/svg">
<path fill-rule="evenodd" clip-rule="evenodd" d="M15.9998 29.3332C23.3636 29.3332 29.3332 23.3636 29.3332 15.9998C29.3332 8.63604 23.3636 2.6665 15.9998 2.6665C8.63604 2.6665 2.6665 8.63604 2.6665 15.9998C2.6665 23.3636 8.63604 29.3332 15.9998 29.3332ZM21.8808 10.7697C22.3147 10.3358 23.0183 10.3358 23.4522 10.7697C23.8861 11.2036 23.8861 11.9072 23.4522 12.3411L14.5633 21.23C14.1294 21.6639 13.4259 21.6639 12.9919 21.23L8.5475 16.7855C8.11358 16.3516 8.11358 15.6481 8.5475 15.2142C8.98141 14.7802 9.68493 14.7802 10.1188 15.2142L13.7776 18.8729L21.8808 10.7697Z" fill="#5CFF7F"/>
</svg>
