<svg width="16" height="16" viewBox="0 0 16 16" fill="none" xmlns="http://www.w3.org/2000/svg">
<path d="M3.35355 6.64645C3.15829 6.45118 2.84171 6.45118 2.64645 6.64645C2.45118 6.84171 2.45118 7.15829 2.64645 7.35355L3.35355 6.64645ZM7 11L6.64645 11.3536C6.84171 11.5488 7.15829 11.5488 7.35355 11.3536L7 11ZM14.3536 4.35355C14.5488 4.15829 14.5488 3.84171 14.3536 3.64645C14.1583 3.45118 13.8417 3.45118 13.6464 3.64645L14.3536 4.35355ZM2.64645 7.35355L6.64645 11.3536L7.35355 10.6464L3.35355 6.64645L2.64645 7.35355ZM7.35355 11.3536L14.3536 4.35355L13.6464 3.64645L6.64645 10.6464L7.35355 11.3536Z" fill="black"/>
</svg>
