<svg width="32" height="32" viewBox="0 0 32 32" fill="none" xmlns="http://www.w3.org/2000/svg">
<path d="M25.9543 1H6.04571C4.36686 1 3 2.36686 3 4.06057V24.1474C3 25.8411 4.36686 27.208 6.04571 27.208H22.8937L22.1063 24.4594L24.008 26.2274L25.8057 27.8914L29 30.7143V4.06057C29 2.36686 27.6331 1 25.9543 1ZM20.2194 20.4034C20.2194 20.4034 19.6846 19.7646 19.2389 19.2C21.1851 18.6503 21.928 17.432 21.928 17.432C21.3189 17.8331 20.7394 18.1154 20.2194 18.3086C19.4766 18.6206 18.7634 18.8286 18.0651 18.9474C16.6389 19.2149 15.3314 19.1406 14.2171 18.9326C13.3703 18.7691 12.6423 18.5314 12.0331 18.2937C11.6914 18.16 11.32 17.9966 10.9486 17.7886C10.904 17.7589 10.8594 17.744 10.8149 17.7143C10.7851 17.6994 10.7703 17.6846 10.7554 17.6697C10.488 17.5211 10.3394 17.4171 10.3394 17.4171C10.3394 17.4171 11.0526 18.6057 12.9394 19.1703C12.4937 19.7349 11.944 20.4034 11.944 20.4034C8.66057 20.2994 7.41257 18.1451 7.41257 18.1451C7.41257 13.3611 9.552 9.48343 9.552 9.48343C11.6914 7.87886 13.7269 7.92343 13.7269 7.92343L13.8754 8.10171C11.2011 8.87429 9.968 10.048 9.968 10.048C9.968 10.048 10.2949 9.86971 10.8446 9.61714C12.4343 8.91886 13.6971 8.72571 14.2171 8.68114C14.3063 8.66629 14.3806 8.65143 14.4697 8.65143C15.376 8.53257 16.4011 8.50286 17.4709 8.62171C18.8823 8.78514 20.3977 9.20114 21.9429 10.048C21.9429 10.048 20.7691 8.93371 18.2434 8.16114L18.4514 7.92343C18.4514 7.92343 20.4869 7.87886 22.6263 9.48343C22.6263 9.48343 24.7657 13.3611 24.7657 18.1451C24.7657 18.1451 23.5029 20.2994 20.2194 20.4034ZM13.3109 13.4651C12.464 13.4651 11.7954 14.208 11.7954 15.1143C11.7954 16.0206 12.4789 16.7634 13.3109 16.7634C14.1577 16.7634 14.8263 16.0206 14.8263 15.1143C14.8411 14.208 14.1577 13.4651 13.3109 13.4651ZM18.7337 13.4651C17.8869 13.4651 17.2183 14.208 17.2183 15.1143C17.2183 16.0206 17.9017 16.7634 18.7337 16.7634C19.5806 16.7634 20.2491 16.0206 20.2491 15.1143C20.2491 14.208 19.5806 13.4651 18.7337 13.4651Z" fill="white"/>
</svg>
