<svg width="24" height="24" viewBox="0 0 24 24" fill="none" xmlns="http://www.w3.org/2000/svg">
<path fill-rule="evenodd" clip-rule="evenodd" d="M12 17.5C7.83737 17.5 4.25549 15.2229 2.56171 11.9428C4.30519 8.72158 7.86954 6.5 12 6.5C16.1304 6.5 19.6948 8.7216 21.4382 11.9429C19.7444 15.2229 16.1626 17.5 12 17.5ZM12 5.5C7.40823 5.5 3.42664 8.02714 1.55427 11.7108C1.48348 11.8501 1.48186 12.0144 1.54989 12.1551C3.36551 15.9088 7.3702 18.5 12 18.5C16.6297 18.5 20.6344 15.9088 22.4501 12.1551C22.5181 12.0145 22.5165 11.8501 22.4457 11.7108C20.5733 8.02715 16.5917 5.5 12 5.5ZM12 16C14.2091 16 16 14.2091 16 12C16 9.79086 14.2091 8 12 8C9.79086 8 8 9.79086 8 12C8 14.2091 9.79086 16 12 16Z" fill="#232323"/>
</svg>
