<svg width="24" height="24" viewBox="0 0 24 24" fill="none" xmlns="http://www.w3.org/2000/svg">
<path fill-rule="evenodd" clip-rule="evenodd" d="M3.35355 2.64645C3.15829 2.45118 2.84171 2.45118 2.64645 2.64645C2.45118 2.84171 2.45118 3.15829 2.64645 3.35355L20.6464 21.3536C20.8417 21.5488 21.1583 21.5488 21.3536 21.3536C21.5488 21.1583 21.5488 20.8417 21.3536 20.6464L3.35355 2.64645ZM1.55427 11.7108C2.42493 9.99789 3.75165 8.53505 5.38372 7.46009L6.1071 8.18347C4.60863 9.12954 3.38309 10.4253 2.56171 11.9428C4.25549 15.2229 7.83737 17.5 12 17.5C13.0475 17.5 14.0582 17.3558 15.0113 17.0877L15.8115 17.8879C14.618 18.2846 13.335 18.5 12 18.5C7.3702 18.5 3.36551 15.9088 1.54989 12.1551C1.48186 12.0144 1.48348 11.8501 1.55427 11.7108ZM21.4382 11.9429C20.6424 13.4839 19.4298 14.8036 17.936 15.7698L18.6578 16.4916C20.29 15.3927 21.6064 13.8994 22.4501 12.1551C22.5181 12.0145 22.5165 11.8501 22.4457 11.7108C20.5733 8.02715 16.5917 5.5 12 5.5C10.6893 5.5 9.42841 5.70589 8.25206 6.0858L9.05604 6.88977C9.98998 6.6361 10.9776 6.5 12 6.5C16.1304 6.5 19.6948 8.7216 21.4382 11.9429Z" fill="#232323"/>
</svg>
