<svg width="24" height="24" viewBox="0 0 24 24" fill="none" xmlns="http://www.w3.org/2000/svg">
<path fill-rule="evenodd" clip-rule="evenodd" d="M3 6C3 3.79086 4.79086 2 7 2H11C13.2091 2 15 3.79086 15 6V7.5C15 8.05228 14.5523 8.5 14 8.5C13.4477 8.5 13 8.05228 13 7.5V6C13 4.89543 12.1046 4 11 4H7C5.89543 4 5 4.89543 5 6V18C5 19.1046 5.89543 20 7 20H11C12.1046 20 13 19.1046 13 18V16.5C13 15.9477 13.4477 15.5 14 15.5C14.5523 15.5 15 15.9477 15 16.5V18C15 20.2091 13.2091 22 11 22H7C4.79086 22 3 20.2091 3 18V6ZM19.5858 13L16.2929 16.2929C15.9024 16.6834 15.9024 17.3166 16.2929 17.7071C16.6834 18.0976 17.3166 18.0976 17.7071 17.7071L22 13.4142C22.781 12.6332 22.781 11.3668 22 10.5858L17.7071 6.29289C17.3166 5.90237 16.6834 5.90237 16.2929 6.29289C15.9024 6.68342 15.9024 7.31658 16.2929 7.70711L19.5858 11H8.99999C8.4477 11 7.99999 11.4477 7.99999 12C7.99999 12.5523 8.4477 13 8.99999 13H19.5858Z" fill="black"/>
</svg>
