<svg width="24" height="25" viewBox="0 0 24 25" fill="none" xmlns="http://www.w3.org/2000/svg">
<path d="M12.5 5.8291C12.5 5.55296 12.2761 5.3291 12 5.3291C11.7239 5.3291 11.5 5.55296 11.5 5.8291H12.5ZM11.5 19.8291C11.5 20.1052 11.7239 20.3291 12 20.3291C12.2761 20.3291 12.5 20.1052 12.5 19.8291H11.5ZM5 12.3291C4.72386 12.3291 4.5 12.553 4.5 12.8291C4.5 13.1052 4.72386 13.3291 5 13.3291L5 12.3291ZM19 13.3291C19.2761 13.3291 19.5 13.1052 19.5 12.8291C19.5 12.553 19.2761 12.3291 19 12.3291V13.3291ZM11.5 5.8291V12.8291H12.5V5.8291H11.5ZM11.5 12.8291V19.8291H12.5V12.8291H11.5ZM5 13.3291H12V12.3291H5L5 13.3291ZM12 13.3291H19V12.3291H12V13.3291Z" fill="black"/>
</svg>
