<svg width="24" height="25" viewBox="0 0 24 25" fill="none" xmlns="http://www.w3.org/2000/svg">
<path d="M12 4.81836C13.0506 4.81836 14.0909 5.02529 15.0615 5.42732C16.0321 5.82936 16.914 6.41864 17.6569 7.16151C18.3997 7.90437 18.989 8.78629 19.391 9.75689C19.7931 10.7275 20 11.7678 20 12.8184C20 13.8689 19.7931 14.9092 19.391 15.8798C18.989 16.8504 18.3997 17.7323 17.6569 18.4752C16.914 19.2181 16.0321 19.8074 15.0615 20.2094C14.0909 20.6114 13.0506 20.8184 12 20.8184C10.9494 20.8184 9.90913 20.6114 8.93853 20.2094C7.96793 19.8074 7.08601 19.2181 6.34314 18.4752C5.60027 17.7323 5.011 16.8504 4.60896 15.8798C4.20693 14.9092 4 13.8689 4 12.8184C4 11.7678 4.20693 10.7275 4.60897 9.75689C5.011 8.78628 5.60028 7.90437 6.34315 7.1615C7.08602 6.41863 7.96793 5.82936 8.93854 5.42732C9.90914 5.02528 10.9494 4.81836 12 4.81836L12 4.81836Z" stroke="#EAEAEA" stroke-width="4" stroke-linecap="round" stroke-linejoin="round"/>
<path d="M12 4.81836C13.3941 4.81836 14.764 5.18265 15.9739 5.87514C17.1838 6.56763 18.1918 7.56427 18.8979 8.76629C19.604 9.96831 19.9837 11.334 19.9995 12.728C20.0152 14.122 19.6664 15.4959 18.9877 16.7135C18.3089 17.9312 17.3237 18.9504 16.1297 19.67C14.9358 20.3897 13.5745 20.7848 12.1807 20.8163C10.787 20.8478 9.40927 20.5146 8.18401 19.8496C6.95875 19.1846 5.92852 18.211 5.19543 17.0252" stroke="#5CFF7F" stroke-width="4" stroke-linecap="round" stroke-linejoin="round"/>
</svg>
