<svg width="24" height="24" viewBox="0 0 24 24" fill="none" xmlns="http://www.w3.org/2000/svg">
<path fill-rule="evenodd" clip-rule="evenodd" d="M5 1C2.79086 1 1 2.79086 1 5V7C1 9.20914 2.79086 11 5 11H7C9.20914 11 11 9.20914 11 7V5C11 2.79086 9.20914 1 7 1H5ZM3 5C3 3.89543 3.89543 3 5 3H7C8.10457 3 9 3.89543 9 5V7C9 8.10457 8.10457 9 7 9H5C3.89543 9 3 8.10457 3 7V5ZM5 13C2.79086 13 1 14.7909 1 17V19C1 21.2091 2.79086 23 5 23H7C9.20914 23 11 21.2091 11 19V17C11 14.7909 9.20914 13 7 13H5ZM3 17C3 15.8954 3.89543 15 5 15H7C8.10457 15 9 15.8954 9 17V19C9 20.1046 8.10457 21 7 21H5C3.89543 21 3 20.1046 3 19V17ZM13 5C13 2.79086 14.7909 1 17 1H19C21.2091 1 23 2.79086 23 5V7C23 9.20914 21.2091 11 19 11H17C14.7909 11 13 9.20914 13 7V5ZM17 3C15.8954 3 15 3.89543 15 5V7C15 8.10457 15.8954 9 17 9H19C20.1046 9 21 8.10457 21 7V5C21 3.89543 20.1046 3 19 3H17ZM15 14C14.4477 14 14 14.4477 14 15V16C14 16.5523 14.4477 17 15 17H16C16.5523 17 17 16.5523 17 16V15C17 14.4477 16.5523 14 16 14H15ZM19 15C19 14.4477 19.4477 14 20 14H21C21.5523 14 22 14.4477 22 15V16C22 16.5523 21.5523 17 21 17H20C19.4477 17 19 16.5523 19 16V15ZM15 19C14.4477 19 14 19.4477 14 20V21C14 21.5523 14.4477 22 15 22H16C16.5523 22 17 21.5523 17 21V20C17 19.4477 16.5523 19 16 19H15ZM4 17C4 16.4477 4.44772 16 5 16H7C7.55228 16 8 16.4477 8 17V19C8 19.5523 7.55228 20 7 20H5C4.44772 20 4 19.5523 4 19V17ZM5 4C4.44772 4 4 4.44772 4 5V7C4 7.55228 4.44772 8 5 8H7C7.55228 8 8 7.55228 8 7V5C8 4.44772 7.55228 4 7 4H5ZM16 5C16 4.44772 16.4477 4 17 4H19C19.5523 4 20 4.44772 20 5V7C20 7.55228 19.5523 8 19 8H17C16.4477 8 16 7.55228 16 7V5ZM20 19C19.4477 19 19 19.4477 19 20V21C19 21.5523 19.4477 22 20 22H21C21.5523 22 22 21.5523 22 21V20C22 19.4477 21.5523 19 21 19H20Z" fill="black"/>
</svg>
