<svg width="24" height="24" viewBox="0 0 24 24" fill="none" xmlns="http://www.w3.org/2000/svg">
<path fill-rule="evenodd" clip-rule="evenodd" d="M15.2426 6.75736C12.8995 4.41421 9.10051 4.41421 6.75736 6.75736C4.41421 9.10051 4.41421 12.8995 6.75736 15.2426C9.10051 17.5858 12.8995 17.5858 15.2426 15.2426C17.5858 12.8995 17.5858 9.10051 15.2426 6.75736ZM5.34315 5.34315C8.46734 2.21895 13.5327 2.21895 16.6569 5.34315C19.5416 8.22787 19.7627 12.7676 17.3202 15.906L21.7071 20.2929C22.0976 20.6834 22.0976 21.3166 21.7071 21.7071C21.3166 22.0976 20.6834 22.0976 20.2929 21.7071L15.906 17.3202C12.7676 19.7627 8.22787 19.5416 5.34315 16.6569C2.21895 13.5327 2.21895 8.46734 5.34315 5.34315Z" fill="black"/>
</svg>
