<svg width="32" height="32" viewBox="0 0 32 32" fill="none" xmlns="http://www.w3.org/2000/svg">
<path fill-rule="evenodd" clip-rule="evenodd" d="M26.6695 10.6681C26.6695 10.8541 26.6695 11.0476 26.6695 11.4271C26.6695 18.6666 21.1412 27.0446 11.0445 27.0446C8.00132 27.0446 5.14418 26.0922 2.6665 24.5744C3.04597 24.5744 3.61888 24.5744 3.99835 24.5744C6.47603 24.5744 8.95371 23.622 10.8585 22.2827C8.38079 22.2827 6.47603 20.5714 5.7171 18.4732C6.09656 18.4732 6.47603 18.6666 6.66948 18.6666C7.23496 18.6666 7.62186 18.6666 8.18734 18.4732C5.7171 17.9077 3.81234 15.8095 3.81234 13.1458C4.57127 13.5253 5.3302 13.7113 6.28258 13.9047C4.76472 12.5729 3.81234 11.0476 3.81234 9.14284C3.81234 8.19046 3.99835 7.23807 4.57127 6.47915C7.23496 9.71575 11.2379 12 15.8064 12.1934C15.8064 11.8065 15.6204 11.4271 15.6204 10.8541C15.6204 7.81099 18.0981 5.33331 21.1412 5.33331C22.6665 5.33331 24.1918 5.90623 25.1442 7.04462C26.476 6.85861 27.6219 6.28569 28.5742 5.71278C28.1873 7.04462 27.235 7.997 26.0966 8.76337C27.235 8.56992 28.1873 8.38391 29.3332 7.81099C28.5742 8.94939 27.6219 9.90177 26.6695 10.6681Z" fill="white"/>
</svg>
