<?xml version="1.0" encoding="utf-8"?><svg viewBox="0 0 40 40" xmlns="http://www.w3.org/2000/svg" xmlns:xlink="http://www.w3.org/1999/xlink"><style>:root>svg{display:none}:root>svg:target{display:block}</style><svg fill="none" viewBox="0 0 40 40" id="Bag" xmlns="http://www.w3.org/2000/svg"><path d="M29.308 13.2h-4.303a5.03 5.03 0 00-1.728-3.01A5.098 5.098 0 0020 9c-1.2 0-2.36.422-3.277 1.19a5.03 5.03 0 00-1.728 3.01h-4.303a1.7 1.7 0 00-1.196.493A1.676 1.676 0 009 14.88v13.44c0 .445.179.872.496 1.187a1.7 1.7 0 001.196.493h18.616a1.7 1.7 0 001.196-.493c.317-.315.495-.742.496-1.187V14.88c0-.445-.179-.872-.496-1.187a1.7 1.7 0 00-1.196-.493zm-12.693 4.2c0 .223-.09.436-.248.594a.85.85 0 01-1.197 0 .837.837 0 01-.248-.594v-1.68c0-.223.09-.436.248-.594a.85.85 0 011.197 0 .837.837 0 01.248.594v1.68zm.108-4.2a3.358 3.358 0 011.204-1.816 3.4 3.4 0 014.146 0 3.358 3.358 0 011.204 1.816h-6.555zm8.353 4.2c0 .223-.09.436-.248.594a.85.85 0 01-1.196 0 .837.837 0 01-.248-.594v-1.68c0-.223.089-.436.248-.594a.85.85 0 011.196 0 .837.837 0 01.248.594v1.68z" fill="#6F6C99"/></svg><svg fill="none" viewBox="0 0 34 35" id="Frame_1111" xmlns="http://www.w3.org/2000/svg"><path d="M9.54 30.324c-2.688-.312-4.704-1.116-6.048-2.412-1.32-1.32-2.004-3.024-2.052-5.112h6.48c.192.912.612 1.584 1.26 2.016.648.408 1.608.612 2.88.612 2.76 0 4.14-.768 4.14-2.304 0-.504-.132-.912-.396-1.224-.264-.336-.648-.624-1.152-.864-.504-.264-1.128-.492-1.872-.684a74.037 74.037 0 00-2.592-.612 25.873 25.873 0 01-3.384-1.008c-.984-.408-1.824-.924-2.52-1.548A6.75 6.75 0 012.7 14.952c-.36-.888-.54-1.944-.54-3.168 0-2.016.648-3.648 1.944-4.896C5.4 5.64 7.212 4.848 9.54 4.512V1.2h5.04v3.312c2.448.312 4.284 1.08 5.508 2.304 1.224 1.224 1.908 2.832 2.052 4.824h-6.48c-.144-.768-.492-1.332-1.044-1.692-.552-.384-1.404-.576-2.556-.576-1.272 0-2.16.204-2.664.612a1.944 1.944 0 00-.756 1.584c0 .888.456 1.536 1.368 1.944.936.408 2.28.78 4.032 1.116a24.87 24.87 0 013.528.972c1.08.36 1.992.852 2.736 1.476a5.938 5.938 0 011.764 2.232c.408.864.612 1.932.612 3.204 0 2.184-.708 3.948-2.124 5.292-1.416 1.32-3.408 2.148-5.976 2.484v4.032H9.54v-3.996zM25.097 20.2h4.27c1.223 0 2.147.294 2.772.882.625.588.938 1.386.938 2.394 0 .7-.168 1.302-.504 1.806-.327.495-.821.859-1.484 1.092L33.357 30h-2.8l-1.904-3.36h-1.036V30h-2.52v-9.8zm3.71 4.48c.672 0 1.13-.098 1.372-.294.252-.205.378-.509.378-.91s-.126-.7-.378-.896c-.242-.205-.7-.308-1.372-.308h-1.19v2.408h1.19z" fill="#fff"/></svg></svg>